<!DOCTYPE svg PUBLIC "-//W3C//DTD SVG 20010904//EN" "http://www.w3.org/TR/2001/REC-SVG-20010904/DTD/svg10.dtd">
<svg version="1.0" xmlns="http://www.w3.org/2000/svg" width="716px" height="713px" viewBox="0 0 7160 7130" preserveAspectRatio="xMidYMid meet">
<g id="layer101" fill="#111111" stroke="none">
<path d="M3395 7099 c-737 -36 -1435 -301 -2020 -766 -141 -112 -436 -407 -548 -548 -541 -680 -808 -1511 -766 -2375 37 -755 296 -1443 766 -2035 112 -141 407 -436 548 -548 591 -470 1283 -730 2035 -766 867 -42 1695 225 2375 766 141 112 436 407 548 548 470 591 730 1283 766 2035 57 1182 -466 2289 -1416 3001 -648 486 -1459 730 -2288 688z m570 -864 c411 -66 770 -204 1095 -421 52 -35 109 -75 125 -88 l30 -25 -557 -558 -558 -558 0 656 0 655 -25 51 c-75 149 -293 178 -399 52 -65 -77 -60 -4 -66 -989 l-5 -895 -25 0 -25 0 -5 895 c-6 985 -1 912 -66 989 -106 126 -324 97 -399 -52 l-25 -51 0 -1176 0 -1176 -30 -29 -30 -29 0 125 c0 144 -9 186 -52 235 -43 49 -97 74 -158 74 -88 0 -152 -38 -193 -115 -21 -38 -22 -54 -25 -396 l-3 -355 -555 -555 -555 -554 -25 30 c-13 17 -53 73 -88 125 -219 328 -356 684 -423 1105 -25 156 -25 594 0 750 96 601 350 1108 762 1520 445 445 1012 711 1660 779 94 10 523 -3 620 -19z m1793 -1093 c248 -342 406 -733 479 -1187 25 -156 25 -594 0 -750 -96 -601 -350 -1108 -762 -1520 -412 -412 -919 -666 -1520 -762 -156 -25 -594 -25 -750 0 -421 67 -777 204 -1105 423 -52 35 -108 75 -125 88 l-30 25 381 381 381 382 59 -31 c112 -59 137 -61 814 -61 504 0 628 3 685 15 179 38 288 149 315 321 7 45 10 281 8 684 -3 612 -3 615 -25 656 -27 50 -70 88 -119 104 l-37 12 644 644 c354 354 647 644 651 644 3 0 29 -31 56 -68z m-1608 -2456 c-7 -7 -16 -7 -28 0 -16 10 -17 48 -20 469 l-2 459 27 29 28 28 3 -487 c1 -327 -1 -491 -8 -498z"/>
<path d="M3502 2059 c-122 -24 -222 -102 -279 -217 -36 -72 -38 -81 -37 -171 0 -75 5 -109 23 -154 32 -81 114 -168 199 -209 62 -31 73 -33 172 -33 99 0 110 2 172 33 85 41 167 128 199 209 18 45 23 79 23 154 1 90 -1 99 -37 171 -58 119 -156 193 -287 218 -60 11 -87 11 -148 -1z"/>
</g>
<g id="layer102" fill="#3f48cc" stroke="none">
<path d="M4420 6126 c163 -55 321 -124 445 -193 103 -57 267 -163 320 -207 l30 -25 -555 -555 c-305 -305 -555 -554 -557 -552 -1 1 -3 296 -3 654 0 401 -4 652 -10 652 -5 0 -7 7 -4 15 4 8 1 15 -6 15 -6 0 -8 5 -5 10 3 6 1 10 -5 10 -6 0 -9 4 -6 8 3 5 -5 19 -17 33 -12 14 -18 18 -13 9 6 -8 -7 2 -27 24 -23 24 -42 36 -52 32 -8 -3 -15 -1 -15 5 0 6 -7 9 -15 5 -8 -3 -15 -1 -15 4 0 13 -97 13 -105 0 -3 -5 -12 -7 -20 -3 -8 3 -15 0 -15 -7 0 -6 -4 -8 -10 -5 -5 3 -10 1 -10 -5 0 -6 -4 -8 -10 -5 -5 3 -26 -11 -47 -30 -21 -20 -31 -34 -23 -30 8 4 4 -3 -10 -14 -14 -11 -21 -21 -17 -21 5 0 1 -7 -8 -16 -9 -10 -14 -25 -12 -35 3 -11 1 -19 -4 -19 -5 0 -10 -367 -11 -882 l-3 -883 -25 0 -25 0 -3 883 c-1 515 -6 882 -11 882 -5 0 -7 8 -4 19 2 10 -3 25 -12 35 -9 9 -13 16 -8 16 4 0 -3 10 -17 21 -14 11 -18 18 -10 14 8 -4 -2 10 -23 30 -21 19 -42 33 -47 30 -6 -3 -10 -1 -10 5 0 6 -4 8 -10 5 -5 -3 -10 -1 -10 5 0 7 -7 10 -15 7 -8 -4 -17 -2 -20 3 -8 13 -105 13 -105 0 0 -5 -7 -7 -15 -4 -8 4 -15 1 -15 -5 0 -6 -7 -8 -15 -5 -10 4 -29 -8 -52 -32 -20 -22 -33 -32 -27 -24 5 9 -1 5 -13 -9 -12 -14 -20 -28 -17 -33 3 -4 0 -8 -6 -8 -6 0 -8 -4 -5 -10 3 -5 1 -10 -5 -10 -7 0 -10 -7 -6 -15 3 -8 1 -15 -4 -15 -6 0 -10 -438 -10 -1177 l0 -1178 -30 -30 -30 -30 0 125 c0 69 -5 142 -11 163 -11 41 -75 120 -90 111 -5 -3 -9 0 -9 6 0 6 -4 9 -9 6 -5 -4 -11 -1 -13 6 -5 14 -138 20 -138 7 0 -5 -7 -6 -15 -3 -8 4 -15 1 -15 -6 0 -6 -5 -8 -10 -5 -14 9 -94 -71 -85 -85 3 -5 1 -10 -5 -10 -6 0 -8 -4 -5 -10 3 -5 1 -10 -6 -10 -6 0 -9 -8 -6 -20 3 -11 1 -23 -4 -26 -5 -3 -9 -152 -9 -342 l0 -337 -556 -555 -555 -555 -25 30 c-44 53 -150 217 -207 320 -69 124 -138 282 -193 445 -24 69 -43 120 -43 113 -1 -22 67 -220 114 -329 78 -183 171 -348 302 -533 l46 -63 1888 1888 c1038 1038 1886 1891 1883 1896 -10 15 -271 185 -358 233 -48 26 -138 70 -199 97 -111 49 -335 128 -359 127 -7 0 43 -19 112 -43z m-965 -106 c3 -5 4 -10 1 -10 -3 0 -8 5 -11 10 -3 6 -4 10 -1 10 3 0 8 -4 11 -10z m265 6 c0 -3 -5 -8 -12 -12 -7 -4 -8 -3 -4 4 7 12 16 16 16 8z m-1050 -2150 c0 -3 -5 -8 -12 -12 -7 -4 -8 -3 -4 4 7 12 16 16 16 8z m-30 -30 c0 -3 -5 -8 -12 -12 -7 -4 -8 -3 -4 4 7 12 16 16 16 8z"/>
<path d="M3816 3341 l-1888 -1888 63 -46 c185 -131 350 -224 533 -302 109 -47 307 -115 329 -114 7 0 -44 19 -113 43 -163 55 -321 124 -445 193 -103 57 -267 163 -320 207 l-30 25 380 381 c261 261 385 378 395 374 8 -3 19 -6 24 -7 5 -1 18 -10 28 -20 11 -10 26 -16 34 -13 8 3 14 1 14 -5 0 -6 7 -9 15 -5 8 3 15 1 15 -5 0 -6 7 -9 15 -6 8 4 17 1 21 -4 3 -6 17 -8 29 -5 13 3 27 2 30 -4 9 -14 1261 -14 1270 0 3 6 17 7 30 4 12 -3 26 -1 29 5 4 5 13 8 21 4 8 -3 15 0 15 6 0 6 7 8 15 5 8 -4 15 -1 15 5 0 6 6 8 14 5 8 -3 23 3 34 13 10 10 25 19 33 21 20 4 111 100 105 111 -3 5 1 12 10 15 9 3 14 12 12 18 -3 7 2 19 9 27 8 8 12 22 10 32 -3 11 -1 19 4 19 4 0 9 12 10 28 5 104 8 1260 3 1272 -4 8 -6 23 -5 33 1 9 -3 17 -9 17 -6 0 -8 5 -5 10 3 6 1 10 -5 10 -6 0 -8 5 -5 10 4 6 -12 29 -34 51 -22 22 -45 38 -51 34 -5 -3 -10 -1 -10 5 0 7 -6 10 -13 7 -6 -2 -17 1 -24 8 -8 9 137 160 634 656 l644 644 25 -30 c44 -53 150 -217 207 -320 69 -124 138 -282 193 -445 24 -69 43 -119 43 -112 1 24 -78 248 -127 359 -27 61 -71 151 -97 199 -48 87 -218 348 -233 358 -5 3 -858 -845 -1896 -1883z m689 529 c3 -5 4 -10 1 -10 -3 0 -8 5 -11 10 -3 6 -4 10 -1 10 3 0 8 -4 11 -10z m30 -30 c3 -5 4 -10 1 -10 -3 0 -8 5 -11 10 -3 6 -4 10 -1 10 3 0 8 -4 11 -10z m-380 -1147 c-2 -7 -16 -12 -29 -11 l-25 2 -1 465 0 465 27 28 28 29 3 -483 c1 -266 0 -489 -3 -495z m355 -397 c0 -3 -5 -8 -12 -12 -7 -4 -8 -3 -4 4 7 12 16 16 16 8z m-60 -60 c0 -3 -5 -8 -12 -12 -7 -4 -8 -3 -4 4 7 12 16 16 16 8z"/>
<path d="M3535 2060 c-3 -6 -17 -7 -31 -4 -14 4 -24 2 -24 -5 0 -6 -7 -8 -15 -5 -8 4 -15 1 -15 -5 0 -6 -6 -8 -14 -5 -7 3 -20 -1 -27 -8 -8 -7 -21 -14 -29 -16 -8 -2 -31 -20 -50 -41 -19 -20 -26 -26 -15 -12 l20 26 -24 -20 c-34 -28 -82 -96 -75 -106 3 -5 0 -9 -7 -9 -7 0 -10 -3 -6 -6 3 -4 -1 -13 -9 -21 -8 -9 -13 -22 -10 -29 3 -8 1 -14 -5 -14 -7 0 -9 -10 -5 -25 4 -14 2 -25 -4 -25 -12 0 -14 -117 -1 -124 5 -3 7 -15 4 -26 -3 -11 0 -20 6 -20 5 0 8 -7 5 -15 -4 -8 -1 -15 6 -15 6 0 8 -5 5 -10 -10 -16 38 -90 91 -140 26 -25 44 -38 40 -30 -4 8 1 5 11 -6 24 -28 61 -47 75 -38 7 4 8 3 4 -4 -7 -11 -2 -13 44 -17 8 0 20 -3 25 -7 9 -5 144 -4 155 2 6 2 26 6 53 8 11 1 15 7 11 14 -4 7 -3 8 4 4 14 -9 51 10 75 38 10 11 15 14 11 6 -4 -8 14 5 40 30 53 50 101 124 91 140 -3 5 -1 10 5 10 7 0 10 7 6 15 -3 8 0 15 5 15 6 0 9 9 6 20 -3 11 -1 23 4 26 13 7 11 124 -1 124 -6 0 -8 11 -4 25 4 15 2 25 -5 25 -6 0 -8 6 -5 14 3 7 -2 20 -10 29 -8 8 -12 17 -9 21 4 3 1 6 -6 6 -7 0 -10 4 -7 9 7 10 -41 78 -75 106 -18 15 -17 11 6 -16 17 -19 10 -14 -15 12 -25 26 -52 49 -60 51 -8 2 -21 9 -29 16 -7 7 -20 11 -27 8 -8 -3 -14 -1 -14 5 0 6 -7 9 -15 5 -8 -3 -15 -1 -15 5 0 7 -10 9 -24 5 -14 -3 -28 -2 -31 4 -3 5 -24 10 -45 10 -21 0 -42 -5 -45 -10z"/>
</g>
</svg>
